Coordinates
version=1
nRows=36
nColumns=34
inDegrees=no

Units are S.I. units (second, meters, Newtons, ...)
If the header above contains a line with 'inDegrees', this indicates whether rotational values are in degrees (yes) or radians (no).

endheader
time	pelvis_tilt	pelvis_list	pelvis_rotation	pelvis_tx	pelvis_ty	pelvis_tz	hip_flexion_r	hip_adduction_r	hip_rotation_r	knee_angle_r	ankle_angle_r	subtalar_angle_r	mtp_angle_r	hip_flexion_l	hip_adduction_l	hip_rotation_l	knee_angle_l	ankle_angle_l	subtalar_angle_l	mtp_angle_l	lumbar_extension	lumbar_bending	lumbar_rotation	arm_flex_r	arm_add_r	arm_rot_r	elbow_flex_r	pro_sup_r	arm_flex_l	arm_add_l	arm_rot_l	elbow_flex_l	pro_sup_l
180.019	0.0548322	-0.0653541	2.19309	0.626775	0.823867	-0.0596966	0.570255	0.0750521	0.0111112	1.05789	0.49938	-0.151963	0	0.539029	-0.350083	-0.19364	1.19261	0.435026	-0.0306795	0	-0.0225909	0.059858	0.136043	1.45086	-0.526502	0.65804	1.53138	1.02172	0.322679	-0.300245	0.386936	0.508066	2.09
180.039	0.0535366	-0.0673185	2.18666	0.628282	0.824428	-0.0608982	0.570048	0.0780983	0.0164698	1.05509	0.496608	-0.152253	0	0.541018	-0.352482	-0.196164	1.19613	0.42452	-0.0346248	0	-0.0227241	0.0583924	0.12713	1.45218	-0.531884	0.649898	1.52997	1.0383	0.325557	-0.298776	0.400729	0.50926	2.09
180.059	0.052261	-0.0694575	2.18019	0.629745	0.824965	-0.0620566	0.57009	0.0810716	0.0220363	1.05244	0.493782	-0.15275	0	0.543485	-0.354665	-0.198445	1.20004	0.413633	-0.0389765	0	-0.0227167	0.0569664	0.11852	1.45357	-0.537099	0.64162	1.52854	1.05621	0.32853	-0.297009	0.413907	0.510329	2.09
180.079	0.0509967	-0.0717474	2.17369	0.631168	0.825485	-0.0631643	0.570339	0.0839394	0.0277483	1.04989	0.490908	-0.153345	0	0.546483	-0.356631	-0.200418	1.20438	0.402229	-0.0438689	0	-0.0226125	0.0555938	0.110223	1.45507	-0.542162	0.633307	1.52709	1.07555	0.331597	-0.294874	0.426251	0.511207	2.09
180.099	0.049725	-0.0741226	2.16716	0.632554	0.826002	-0.064214	0.570696	0.0866777	0.033528	1.04738	0.487996	-0.153944	0	0.550016	-0.358407	-0.202041	1.20918	0.390167	-0.049376	0	-0.0224948	0.0542945	0.102215	1.45674	-0.547071	0.625082	1.52556	1.09625	0.334752	-0.292367	0.437693	0.511912	2.09
180.119	0.0484212	-0.0764797	2.16066	0.633907	0.826534	-0.0652004	0.571015	0.089284	0.0392998	1.04481	0.485052	-0.154474	0	0.554025	-0.360047	-0.203307	1.21446	0.377328	-0.0555043	0	-0.0224783	0.0530948	0.094447	1.45863	-0.551801	0.617062	1.52383	1.11807	0.337991	-0.289543	0.448293	0.512535	2.09
180.139	0.0470594	-0.0786901	2.15421	0.635234	0.827099	-0.0661211	0.571118	0.0917769	0.0449981	1.04209	0.482083	-0.154884	0	0.5584	-0.361626	-0.204238	1.22016	0.363622	-0.0622099	0	-0.0226963	0.0520235	0.0868701	1.46075	-0.556322	0.609342	1.52179	1.14074	0.341311	-0.286493	0.458192	0.513218	2.09
180.159	0.0456147	-0.0806198	2.14784	0.636537	0.827717	-0.0669762	0.570823	0.0941846	0.0505679	1.03913	0.479088	-0.155131	0	0.562999	-0.36322	-0.204873	1.22625	0.348988	-0.0694278	0	-0.023282	0.0511047	0.0794434	1.46315	-0.56061	0.601988	1.51933	1.16399	0.344712	-0.283322	0.467549	0.514113	2.09
180.179	0.0440647	-0.082155	2.14157	0.637821	0.828403	-0.0677658	0.569976	0.0965279	0.0559662	1.03582	0.476062	-0.155176	0	0.56768	-0.364888	-0.20526	1.23266	0.333382	-0.0771034	0	-0.0243482	0.0503486	0.0721421	1.46579	-0.564671	0.595041	1.51641	1.18764	0.3482	-0.280121	0.476513	0.51534	2.08999
180.199	0.0423904	-0.0832237	2.13542	0.63909	0.829169	-0.0684878	0.568473	0.09881	0.0611669	1.0321	0.472994	-0.15499	0	0.572347	-0.366656	-0.20544	1.23933	0.316771	-0.0852177	0	-0.0259706	0.0497444	0.0649558	1.46867	-0.568541	0.588538	1.513	1.2116	0.351789	-0.276951	0.485194	0.516963	2.08998
180.219	0.0405783	-0.0838081	2.12938	0.640343	0.830021	-0.069136	0.566283	0.101016	0.06617	1.02793	0.469864	-0.154581	0	0.57697	-0.368507	-0.205436	1.24621	0.29911	-0.0937976	0	-0.0281778	0.0492602	0.0578821	1.47176	-0.572282	0.582513	1.50912	1.23583	0.355494	-0.273832	0.493667	0.518974	2.08997
180.239	0.0386235	-0.0839443	2.12349	0.641583	0.830959	-0.0697002	0.563442	0.103129	0.0710137	1.02329	0.466651	-0.154023	0	0.581605	-0.370396	-0.205256	1.25331	0.280345	-0.102911	0	-0.0309503	0.0488486	0.0509192	1.47504	-0.575961	0.577007	1.50481	1.2603	0.359334	-0.270751	0.501973	0.521301	2.08995
180.259	0.0365336	-0.0837117	2.11776	0.642808	0.831977	-0.0701691	0.560048	0.105145	0.0757824	1.01822	0.463336	-0.153473	0	0.58638	-0.372265	-0.204894	1.26067	0.26042	-0.112647	0	-0.0342256	0.0484567	0.0440617	1.4785	-0.579624	0.572053	1.50009	1.28498	0.36332	-0.267671	0.510133	0.523833	2.08993
180.279	0.0343316	-0.0832191	2.11219	0.644021	0.83306	-0.070534	0.556244	0.107096	0.0806047	1.01278	0.459907	-0.153164	0	0.591469	-0.374065	-0.204342	1.26834	0.2393	-0.1231	0	-0.037905	0.0480354	0.0373013	1.48212	-0.583284	0.567664	1.49497	1.30987	0.367449	-0.264548	0.518136	0.526437	2.08994
180.299	0.0320549	-0.08259	2.10676	0.645223	0.83419	-0.0707929	0.552202	0.109041	0.085637	1.00705	0.456367	-0.153366	0	0.597046	-0.375763	-0.203605	1.27638	0.216996	-0.134344	0	-0.0418614	0.0475456	0.0306338	1.48587	-0.586912	0.563813	1.48945	1.33494	0.371703	-0.26134	0.525943	0.528988	2.08999
180.319	0.0297478	-0.081949	2.10146	0.646419	0.83534	-0.0709513	0.548106	0.111053	0.0910332	1.00116	0.452741	-0.154318	0	0.603249	-0.377345	-0.202703	1.28482	0.19359	-0.146428	0	-0.045953	0.046959	0.0240651	1.48973	-0.590455	0.560433	1.48355	1.36023	0.376038	-0.258018	0.533466	0.531397	2.09013
180.339	0.0274519	-0.0814127	2.09621	0.64761	0.836481	-0.0710211	0.544139	0.11319	0.096909	0.995254	0.449069	-0.156164	0	0.610152	-0.378799	-0.201674	1.29365	0.16924	-0.159371	0	-0.050036	0.0462537	0.0176156	1.49364	-0.593848	0.557426	1.47731	1.38574	0.380382	-0.254572	0.540583	0.533642	2.0904
180.359	0.0251973	-0.0810691	2.09096	0.648796	0.837585	-0.0710196	0.540461	0.115483	0.103318	0.989504	0.445408	-0.158915	0	0.617734	-0.380117	-0.200576	1.30281	0.14418	-0.173161	0	-0.0539891	0.0454182	0.0113286	1.49756	-0.597049	0.554679	1.47078	1.41144	0.384661	-0.250992	0.547153	0.535729	2.09082
180.379	0.0229987	-0.0809635	2.08563	0.649978	0.838623	-0.0709661	0.537178	0.117931	0.110245	0.984066	0.44182	-0.162455	0	0.625884	-0.381292	-0.199469	1.31217	0.118688	-0.187763	0	-0.0577315	0.0444548	0.00526793	1.50144	-0.600048	0.552084	1.46406	1.43729	0.388814	-0.247259	0.553059	0.537668	2.09134
180.399	0.0208585	-0.0810918	2.08016	0.651152	0.839575	-0.0708806	0.534341	0.120514	0.117608	0.979082	0.438362	-0.16658	0	0.634427	-0.38233	-0.198411	1.32163	0.0930442	-0.203125	0	-0.0612309	0.0433842	-0.000498151	1.50525	-0.602868	0.549555	1.45724	1.46327	0.392805	-0.243354	0.558261	0.539476	2.09177
180.419	0.0187725	-0.0814052	2.07451	0.652315	0.840426	-0.0707811	0.53194	0.123207	0.125287	0.974659	0.435084	-0.171063	0	0.64317	-0.383253	-0.197441	1.33107	0.0674816	-0.219204	0	-0.0645018	0.0422451	-0.00592141	1.509	-0.605552	0.54704	1.45039	1.4894	0.39662	-0.239283	0.562842	0.541193	2.09174
180.439	0.0167343	-0.0818158	2.06867	0.653461	0.84117	-0.0706841	0.529907	0.125997	0.13315	0.970868	0.432017	-0.175724	0	0.651941	-0.384101	-0.196566	1.34044	0.0421326	-0.235976	0	-0.0675999	0.0410919	-0.0109937	1.51269	-0.608136	0.544515	1.44353	1.51579	0.40026	-0.235085	0.567028	0.542891	2.09056
180.459	0.0147361	-0.0822143	2.06267	0.654587	0.841807	-0.0706036	0.528135	0.128888	0.141083	0.967733	0.429182	-0.180455	0	0.660619	-0.38493	-0.195765	1.34972	0.0169928	-0.253445	0	-0.0706083	0.0399835	-0.0157592	1.51633	-0.610629	0.541981	1.43666	1.54255	0.403734	-0.230849	0.571168	0.544684	2.08729
180.479	0.0127654	-0.0824971	2.05658	0.655688	0.842344	-0.0705509	0.526501	0.13188	0.148992	0.965241	0.426591	-0.185217	0	0.669169	-0.385792	-0.194984	1.35896	-0.00809287	-0.271626	0	-0.0736153	0.0389652	-0.0203119	1.51994	-0.613009	0.539453	1.42971	1.56974	0.407049	-0.226695	0.575662	0.546715	2.08087
180.499	0.0107984	-0.0825982	2.05049	0.656758	0.842791	-0.070533	0.524913	0.134948	0.15681	0.963359	0.424256	-0.189993	0	0.677647	-0.386715	-0.194154	1.36823	-0.033411	-0.290514	0	-0.0766894	0.0380485	-0.0247803	1.52353	-0.615229	0.536953	1.42261	1.59727	0.410212	-0.222746	0.580821	0.549127	2.07071
180.519	0.00880897	-0.0825027	2.04449	0.657794	0.843156	-0.0705523	0.523328	0.138027	0.16447	0.962032	0.422191	-0.194731	0	0.686193	-0.387713	-0.193205	1.37764	-0.0593165	-0.310021	0	-0.0798602	0.0372159	-0.0292913	1.52708	-0.617247	0.534506	1.41531	1.62481	0.413231	-0.219068	0.586716	0.552001	2.05714
180.539	0.00677564	-0.0822509	2.03868	0.65879	0.843444	-0.0706072	0.521766	0.141019	0.17189	0.961204	0.420417	-0.199301	0	0.694996	-0.388793	-0.192079	1.38727	-0.0861443	-0.329932	0	-0.0831099	0.0364288	-0.0339378	1.53062	-0.619046	0.532136	1.4078	1.6518	0.416126	-0.215664	0.593219	0.555339	2.04112
180.559	0.00468786	-0.0819393	2.03312	0.659744	0.843656	-0.0706922	0.520322	0.143799	0.178976	0.960826	0.418953	-0.203509	0	0.70427	-0.389964	-0.190747	1.39718	-0.114127	-0.3499	0	-0.0863668	0.0356336	-0.0387612	1.53414	-0.620635	0.529822	1.40014	1.67789	0.418928	-0.212511	0.600211	0.559111	2.02358
180.579	0.0025491	-0.0816997	2.02784	0.660657	0.843787	-0.0707992	0.519145	0.146245	0.185629	0.960872	0.417816	-0.207134	0	0.714206	-0.391254	-0.189214	1.4074	-0.143315	-0.369443	0	-0.089521	0.0347745	-0.0437466	1.53765	-0.622046	0.527494	1.39247	1.70305	0.421681	-0.209589	0.607698	0.563279	2.00502
180.599	0.000380884	-0.0816623	2.02282	0.661529	0.843831	-0.0709203	0.518397	0.148267	0.191765	0.961329	0.417014	-0.209959	0	0.724927	-0.392727	-0.187516	1.41789	-0.173498	-0.387942	0	-0.0924559	0.0338158	-0.0488256	1.54117	-0.62334	0.525083	1.38496	1.72733	0.424435	-0.206862	0.615718	0.567786	1.98588
180.619	-0.00177786	-0.0819386	2.01801	0.662363	0.84378	-0.0710497	0.518222	0.149836	0.197339	0.962199	0.416538	-0.211851	0	0.736475	-0.394477	-0.185702	1.42863	-0.204209	-0.40472	0	-0.0950604	0.032747	-0.0539046	1.5447	-0.624568	0.522504	1.37777	1.75114	0.427239	-0.204304	0.624387	0.572575	1.96629
180.639	-0.00387804	-0.0825935	2.01336	0.663159	0.843629	-0.0711853	0.518709	0.150989	0.202369	0.963481	0.416361	-0.212793	0	0.748792	-0.396621	-0.183818	1.43952	-0.234719	-0.419071	0	-0.0972583	0.0315889	-0.0588877	1.54827	-0.625771	0.519704	1.37106	1.77486	0.430135	-0.201868	0.633746	0.577546	1.94645
180.659	-0.00587133	-0.0836508	2.00881	0.663917	0.843377	-0.0713284	0.519886	0.151822	0.206939	0.965175	0.416436	-0.212917	0	0.761738	-0.399263	-0.181884	1.45051	-0.264137	-0.430402	0	-0.0990053	0.0303793	-0.063707	1.55188	-0.626956	0.516648	1.36485	1.79895	0.433162	-0.199503	0.643808	0.582573	1.92646
180.679	-0.00772157	-0.0850779	2.0043	0.664634	0.843031	-0.0714845	0.521695	0.152473	0.211189	0.967259	0.416705	-0.212482	0	0.77509	-0.402466	-0.179883	1.46153	-0.291518	-0.438317	0	-0.10031	0.0291708	-0.0683329	1.55552	-0.628116	0.513366	1.35912	1.82353	0.43635	-0.197132	0.654455	0.587476	1.90662
180.699	-0.00940976	-0.0868099	1.99982	0.665302	0.842601	-0.0716605	0.524023	0.153092	0.215295	0.969704	0.417112	-0.211843	0	0.788579	-0.40622	-0.177755	1.4725	-0.316055	-0.4428	0	-0.101215	0.0280145	-0.072781	1.55917	-0.629234	0.509918	1.35375	1.84862	0.439721	-0.194686	0.665564	0.592083	1.88715
180.719	-0.0109344	-0.0887398	1.9954	0.665915	0.842104	-0.0718645	0.526695	0.153829	0.219442	0.972458	0.417612	-0.2114	0	0.801886	-0.410451	-0.175404	1.4834	-0.337256	-0.444294	0	-0.101809	0.0269662	-0.0770952	1.56281	-0.630318	0.506423	1.34858	1.87388	0.44328	-0.192102	0.676955	0.59625	1.86841
